<svg id="Слой_2" data-name="Слой 2" xmlns="http://www.w3.org/2000/svg" xmlns:xlink="http://www.w3.org/1999/xlink" viewBox="0 0 1115.7 759.35"><defs><style>.cls-1{fill:url(#Безымянный_градиент_49);}</style><linearGradient id="Безымянный_градиент_49" x1="85.43" y1="457.8" x2="1142.49" y2="191.67" gradientUnits="userSpaceOnUse"><stop offset="0" stop-color="#fdc533"/><stop offset="0.29" stop-color="#feca39"/><stop offset="0.96" stop-color="#ffd244"/></linearGradient></defs><path class="cls-1" d="M47,759.3c-30.58-.2-47.28-22-46.95-53.46C5.9,591.92,151.88,470.13,256.54,403.48c-1.11-17.6-9.55-26.59-23.18-23.87-18.66,3.48-35.24,23.12-47.34,37.46-6.3,7.47-11.27,13.36-15.51,16.11-5.78,3.95-12.16,2.5-15.38-4.23-2.34-4.81-3-12.43.12-16.35,59.52-79.28,72.22-128.3,113.57-196.6-12.92,1.56-44,3.4-61.92,1.48-40-4.47-70.16,14-77,29.94-7.15,15.27.33,32.15-14.56,44.73-4.65,4.16-15.23,4-19.33-.74a9,9,0,0,1-2.36-7c2.82-50.27,45.46-88,94.31-96.65,30.67-4.89,74.38,1.16,105.31-7.88,5.5-6.79,32-40.87,53.32-41.26,9.48,0,15.6,7.18,15.6,18.29.07,12.1-13.87,30.71-39.79,42.2-49.14,68.28-52.18,92.77-92.62,154.06a1.22,1.22,0,0,0,1.63,1.73c26.78-16.32,50.36-4.92,57.5,29.38,7.27-4.07,14.65-8,21.87-11.74,1-18.44,19.69-60.8,42.55-102.61,20-36.54,25.92-52,44.89-53.69a16.05,16.05,0,0,1,12,5.06A11.67,11.67,0,0,1,413,230.7c-1.07,8-11.46,26.22-24.62,49.35C375,303.66,337.35,368.43,352.11,372c16.67-1.81,53.06-51.95,66.8-79.49C431.91,264,454.74,201,470,200.77c7-1.52,15.17.75,18.42,6.57a11.2,11.2,0,0,1,.63,10.91c-3.28,6.26-6.86,13.5-10.64,21.54l1.73,1c25.57-37.89,44.6-55.57,63.62-59.11,21.86-4.19,35.4,11.46,35.37,40.22,0,19.31-17,66.47-47.78,101.76a1.18,1.18,0,0,0,1.46,1.8c20.14-11,34.6-22.67,45.62-36.72C588.78,237.05,678.16,13.19,737,.44,755.33-3.19,757.29,14.35,756.92,25c0,60.21-80.79,174.44-128.94,237.17-33.35,117.86,36.08,29.61,69.31-37.18,29.29-55.9,34.68-71.56,56.6-73.78,4.53,0,8.38,1.6,10.87,4.5a12.87,12.87,0,0,1,2.73,10.53c-1.23,7.9-13,28.92-26.69,53.26-13.41,24.72-54.92,93-30.73,88,8.45-1.57,37.88-32.12,59.66-69.48,7.24-12.56,19.47-42.26,26.81-59.43,12.59-27.84,21.63-44,34.49-43.19,8.62-.34,16.84,6.27,15.52,14.57-.56,2.74-1.84,5.22-4.39,10.16-1.58,3.07-3.7,7.18-6.52,13a1.08,1.08,0,0,0,1.86,1.09c29.49-40.78,49.22-60,77.52-62.36,15.08,0,23.72,11.59,23.72,31.79,0,16.53-18.47,49.45-34.76,78.49-11.83,21.09-23,41-23,47.77-.22,3.82,3,4.58,6.23,3.89,6.92-1.29,34.53-21.42,69.48-94.51,31.54-66,76.26-90.15,95.5-93.74,49.52-9.31,52,48.65,18.81,79.87-12.56,12.71-37.54,28.67-78.54,30.89-9.22,29.1-12,59.87,16.86,54.74,35.64-6.64,62.49-47.48,80.25-74.51,2.86-4.35,6-9,8.48-13.07,3.4-5.46,5.64-9.07,9.11-9.94,7.39-1.93,9.57,4.51,8.1,10.19C1103,199.3,1044.47,291.64,986.87,291.38c-26.3.31-43-21.85-44-47.3-26.92,43-49.38,68.66-77.85,69.81-21.91.31-25.08-22.54-23.24-35.81,2.19-18.76,17.35-44.68,32-69.74C886.28,187.07,898,167,898,156.81c1.21-18.5-56.52,6.33-120.17,155.73-4.55,11.45-9.17,20.4-23.58,23.08-11.07,2.17-15.9-7.35-14.83-18.15l.24-3.13c-16.49,20.16-31.73,32.21-51.18,33-16,0-24.33-12.92-24.4-28.12-20.21,29.54-36.91,40.88-53.59,43.2C583.19,366.94,574,343,575.86,315.87c-28,26.4-56.12,38.66-80.51,46.48-15.93,19.64-52.45,38.4-63.05,21-3-5.11-3.21-12.31-.47-18.8C438,350,457.33,345,473.42,342.18c27.32-25.76,65.11-79.11,65.14-112.31,0-8.06-2.41-12.14-7.16-12.14-31.16,4.43-91.25,97.66-154.21,262-3.37,9.19-9.46,21.71-23.48,24.32-4.6,1-9.85,0-12.68-3.47-3.21-3.72-3.71-9.29-3.11-13.27,1.48-9.85,21.66-57.62,39.74-96.46a1.14,1.14,0,0,0-.4-1.44,1.17,1.17,0,0,0-1.5.16c-11.69,12.19-22.5,18.67-34.94,21s-25-.17-29.27-19.06c-6.84,4.17-13.7,8.43-20.37,12.65C291.35,499.59,180.83,747.5,47,759.3Zm206-330C154,495.87,37.81,603.9,31.69,692.38c-.2,14.92,10.75,23.89,23.93,21.11,76.85-17.72,188.57-213.38,199.29-285.58ZM734.18,37.65c-2.37,0-7.69,4.14-14.88,15.82-36.48,59.22-61.36,121.45-73.13,153.87a1.12,1.12,0,0,0,.54,1.38,1.13,1.13,0,0,0,1.45-.37c60.2-88.32,94.9-160.76,86.4-170.67ZM1060.84,112c-19.43,1.89-43.81,30.14-59.24,62.12,56.22-6.37,68.5-42.57,68.42-49.08C1070.9,119.83,1067.67,111.65,1060.84,112ZM422.69,178.23c-7.54,0-13.21-4.06-15.2-10.87-3.23-11.11,4.31-25.85,16.81-32.86,10.08-6,24.56-5,28,7.23C457.13,156.55,440.19,178.42,422.69,178.23Zm354.25-64.57c-7.53,0-13.21-4.07-15.19-10.87-3.23-11.11,4.31-25.85,16.81-32.86,10.08-6,24.55-5,28,7.23C811.38,92,794.45,113.85,776.94,113.66Z" transform="translate(0 0.05)"/></svg>